<?xml version="1.0" encoding="UTF-8"?>
<svg xmlns="http://www.w3.org/2000/svg" xmlns:xlink="http://www.w3.org/1999/xlink" id="Group_575" data-name="Group 575" width="165.438" height="98.199" viewBox="0 0 165.438 98.199">
  <defs>
    <clipPath id="clip-path">
      <rect id="Rectangle_1" data-name="Rectangle 1" width="165.438" height="98.2" fill="none"></rect>
    </clipPath>
  </defs>
  <g id="Group_40" data-name="Group 40" clip-path="url(#clip-path)">
    <path id="Path_39" data-name="Path 39" d="M151.52,16.989V0h-51.9L94.95,4.477c-3.982-.278-8.059-.429-12.233-.429s-8.249.151-12.231.429L65.823,0H13.918V16.989C11.089,17.989,0,22.156,0,22.156V74.93s10.958,4.119,13.717,5.1V98.2h49.5l1.719-6.065a176.519,176.519,0,0,0,17.78.9,176.571,176.571,0,0,0,17.783-.9l1.719,6.065h49.5V80.026c2.758-.978,13.716-5.1,13.716-5.1V22.156s-11.089-4.167-13.918-5.167" fill="#1a1818"></path>
    <path id="Path_40" data-name="Path 40" d="M125.049,111.017a175.009,175.009,0,0,0-36.612,3.849v12.117h73.226V114.867a175.019,175.019,0,0,0-36.613-3.85" transform="translate(-42.332 -53.14)" fill="#fff"></path>
    <path id="Path_41" data-name="Path 41" d="M131.539,37.068a166.648,166.648,0,0,0-73.516,0A250.743,250.743,0,0,0,25.2,47.024v31a240.5,240.5,0,0,1,30.952-9.019,182.712,182.712,0,0,1,77.257,0,240.5,240.5,0,0,1,30.953,9.019v-31a250.791,250.791,0,0,0-32.823-9.956M58.265,44.726q-.9.194-1.8.4V61.3q.9-.2,1.8-.395v5.748c-3.016.628-5.955,1.29-8.9,2v-12.7a18.354,18.354,0,0,1,.077-2.132q-3.2,6.786-6.38,13.7-3.272-4.967-6.515-9.8c.039.808.077.949.077,1.89V72.238c-2.854.878-5.526,1.705-8.516,2.777V69.268q.883-.365,1.768-.721V52.983q-.885.354-1.768.72V47.955c2.828-1.052,5.563-1.962,8.444-2.934,1.792,2.728,3.665,5.56,5.472,8.35A20.113,20.113,0,0,1,43.105,55.5c.5-1.247.655-1.608,1.194-2.829q2.661-5.85,5.341-11.612,4.292-1.15,8.625-2.077ZM83.622,63.335c-2.881.183-5.758.4-8.628.723-.331-2.2-.7-4.61-1.029-6.812q-2.36.282-4.712.63c-.317,2.288-.645,4.743-.961,7.033-2.872.44-5.725.875-8.576,1.46V60.62q1.019-.21,2.043-.406c1.271-7.531,2.574-15.254,3.849-22.756,4.038-.685,8.018-1.326,12.085-1.724C79,42.892,80.4,50.488,81.711,57.676q.953-.072,1.911-.133Zm24.626.15q-2.646-.207-5.3-.335c-2.909-.174-4.026-.414-4.064-3V51.568q-2.154-.051-4.307-.052V63q-4.766,0-9.527.264V57.516q.9-.048,1.793-.09V40.788c-.6.028-1.2.056-1.793.09V35.129q7.328-.405,14.67-.189c1.713.088,3.747.18,5.261,1.642s1.51,3.532,1.51,5.33c0,3.647-.038,6.031-4.021,7.122a4.934,4.934,0,0,1,2.828,1.6,5.988,5.988,0,0,1,1.076,3.783V57.6c.624.041,1.247.088,1.87.137Zm9.48-10.654q-4.258-.571-8.534-.93V47.19q4.274.36,8.534.93ZM139.546,68.49c-3.76-.944-7.535-1.7-11.334-2.444a16.368,16.368,0,0,1-3.345-.932c-3.628-1.6-3.672-4.705-3.671-6.63V43.859c0-1.644,0-3.328,1.186-4.583,1.54-1.632,3.867-1.389,6.027-.958,3.629.719,7.239,1.616,10.828,2.57v8.978q-3.166-.84-6.357-1.56V45.14q-2.055-.464-4.118-.876V60.373q2.061.412,4.118.877V56.831q3.345.755,6.667,1.643Zm21.6-.772a13.04,13.04,0,0,1-.337,3.786c-.937,3.242-3.81,2.007-6.35,1.2-1.647-.52-3.277-1.032-4.886-1.511-1.687-.569-3.918-1.3-5.423-3a7.028,7.028,0,0,1-1.7-5.4V49.307a11.176,11.176,0,0,1,.581-4.53c1.161-2.563,3.861-1.745,5.893-1.071,1.775.561,3.519,1.116,5.269,1.716,2.55.924,4.926,2.1,6.167,4.88.788,1.771.788,3.731.788,6Z" transform="translate(-12.062 -15.779)" fill="#fff"></path>
    <path id="Path_42" data-name="Path 42" d="M158.285,53.111q2.154,0,4.307.052V47.689q-2.154-.052-4.307-.052Z" transform="translate(-75.765 -22.802)" fill="#fff"></path>
    <path id="Path_43" data-name="Path 43" d="M110.836,60.577q1.76-.253,3.524-.471-.871-5.68-1.743-11.351-.891,5.906-1.781,11.822" transform="translate(-53.053 -23.337)" fill="#fff"></path>
    <path id="Path_44" data-name="Path 44" d="M264.361,80.984c1.34.449,2.677.717,4.009,1.2V66.491c-1.329-.428-2.665-.851-4.009-1.287Z" transform="translate(-126.54 -31.211)" fill="#fff"></path>
    <path id="Path_45" data-name="Path 45" d="M95.694,102.577c-24.629,0-45.983,4.931-68.587,13.067l3.184.984c21.508-7.521,41.946-12.016,65.4-12.018s43.9,4.5,65.4,12.018l3.184-.983c-22.605-8.137-43.959-13.067-68.587-13.067" transform="translate(-12.975 -49.1)" fill="#464749"></path>
    <path id="Path_46" data-name="Path 46" d="M40.854,42.638a7.049,7.049,0,0,0-4.473-1.593H36.3l4.194,1.712.362-.12" transform="translate(-17.375 -19.647)" fill="#464749"></path>
    <path id="Path_47" data-name="Path 47" d="M138.51,21.48l-3.945-3.818,1.851,3.937q1.044-.066,2.094-.119" transform="translate(-64.411 -8.454)" fill="#464749"></path>
    <path id="Path_48" data-name="Path 48" d="M37.849,148.093a7.08,7.08,0,0,0,5.679-4.024l-4.088,2.9Z" transform="translate(-18.117 -68.961)" fill="#464749"></path>
    <path id="Path_49" data-name="Path 49" d="M108.6,150h2.5l1.491-2.023h-8.937A7.051,7.051,0,0,0,108.6,150" transform="translate(-49.611 -70.831)" fill="#464749"></path>
    <path id="Path_50" data-name="Path 50" d="M121.263,154.374v4.962l.19-.681,1.188-4.253,1.643-5.886-2.96,5.739Z" transform="translate(-58.044 -71.09)" fill="#464749"></path>
    <path id="Path_51" data-name="Path 51" d="M198.038,150h2.5a7.052,7.052,0,0,0,4.952-2.023h-8.937Z" transform="translate(-94.08 -70.831)" fill="#464749"></path>
    <path id="Path_52" data-name="Path 52" d="M190.278,148.516l1.643,5.886,1.188,4.253.19.681v-4.962l-.061-.118Z" transform="translate(-91.079 -71.089)" fill="#464749"></path>
    <path id="Path_53" data-name="Path 53" d="M276.854,41.045h-.084a7.05,7.05,0,0,0-4.473,1.593l.362.12Z" transform="translate(-130.339 -19.646)" fill="#464749"></path>
    <path id="Path_54" data-name="Path 54" d="M179.146,17.663,175.2,21.481q1.05.052,2.094.119Z" transform="translate(-83.862 -8.455)" fill="#464749"></path>
    <path id="Path_55" data-name="Path 55" d="M268.593,144.069a7.107,7.107,0,0,0,3.074,3.229,7.033,7.033,0,0,0,2.6.8l-1.591-1.128Z" transform="translate(-128.566 -68.961)" fill="#464749"></path>
    <path id="Path_56" data-name="Path 56" d="M128.1,160.332l-1.209,4.267c4.019.389,8.137.648,12.357.752l-2.23-4.448q-4.522-.17-8.918-.572" transform="translate(-60.737 -76.745)" fill="#96999c"></path>
    <path id="Path_57" data-name="Path 57" d="M12.779,48.008h0q5.249-1.985,10.4-3.764l-5.04-2.879q-3.537,1.265-6.91,2.546L8.4,44.983V91.7l2.829,1.07c3.248,1.228,6.608,2.46,10.084,3.664l4.42-3.127c-4.28-1.433-8.587-2.982-12.954-4.633Z" transform="translate(-4.021 -19.8)" fill="#96999c"></path>
    <path id="Path_58" data-name="Path 58" d="M151.392,16.166q-4.021,0-7.922.185l4.407,4.231q1.747-.035,3.515-.038t3.516.038l4.407-4.231q-3.9-.181-7.924-.185" transform="translate(-68.674 -7.738)" fill="#96999c"></path>
    <path id="Path_59" data-name="Path 59" d="M168.973,160.9l-2.23,4.448c4.22-.1,8.339-.363,12.358-.752l-1.21-4.268q-4.4.4-8.918.572" transform="translate(-79.814 -76.744)" fill="#96999c"></path>
    <path id="Path_60" data-name="Path 60" d="M290.19,43.912q-3.373-1.275-6.909-2.546l-5.041,2.879q5.16,1.777,10.4,3.764v40.67c-4.366,1.651-8.673,3.2-12.954,4.632l4.42,3.128c3.475-1.2,6.836-2.437,10.083-3.664l2.83-1.07V44.983Z" transform="translate(-131.961 -19.8)" fill="#96999c"></path>
    <path id="Path_61" data-name="Path 61" d="M236.571,21.014l.35,0V9H192.459l-4.241,8.812a190.271,190.271,0,0,1,38.893,7.92,11.809,11.809,0,0,1,9.46-4.717" transform="translate(-90.093 -4.307)" fill="#7c8b8b"></path>
    <path id="Path_62" data-name="Path 62" d="M65.264,134.169h-6.01V119.132q-5.8,1.347-11.574,3.044v6.937a11.783,11.783,0,0,1-11.771,11.771h-.6v9.65H75.43v-9.659a11.781,11.781,0,0,1-10.167-6.7" transform="translate(-16.902 -57.024)" fill="#7c8b8b"></path>
    <path id="Path_63" data-name="Path 63" d="M244.591,140.884a11.783,11.783,0,0,1-11.77-11.771v-6.937c-3.859-1.128-7.709-2.145-11.575-3.043V134.17h-6.009a11.777,11.777,0,0,1-10.166,6.7v9.659h40.118v-9.65Z" transform="translate(-98.16 -57.025)" fill="#7c8b8b"></path>
    <path id="Path_64" data-name="Path 64" d="M35.7,9V21.019l.4-.005A11.758,11.758,0,0,1,45.51,25.73,190.286,190.286,0,0,1,84.4,17.81L80.161,9Z" transform="translate(-17.087 -4.307)" fill="#7c8b8b"></path>
    <path id="Path_65" data-name="Path 65" d="M153.69,156.584h1.079l4.292-8.608H149.4Z" transform="translate(-71.512 -70.831)" fill="#7c8b8b"></path>
    <path id="Path_66" data-name="Path 66" d="M103.224,118.893a1.372,1.372,0,0,1,1.3.377,2.26,2.26,0,0,1,.476,1.563c0,.8.005,1.2.008,1.994a2.46,2.46,0,0,1-.47,1.582,1.7,1.7,0,0,1-1.3.643c-.861.054-1.291.082-2.152.14,0,.74,0,1.11,0,1.851l.79-.028c0,.844,0,1.265.006,2.108H97.734v-1.953l.75-.03c0-2.185,0-3.279,0-5.465l-.746.111v-1.94c2.191-.418,3.29-.609,5.49-.954m-2.139,2.417c0,.857,0,1.286.006,2.143.544-.053.816-.079,1.361-.129,0-.877,0-1.315-.007-2.192-.544.069-.816.1-1.359.178" transform="translate(-46.782 -56.897)" fill="#1a1818"></path>
    <path id="Path_67" data-name="Path 67" d="M118.4,116.89a1.412,1.412,0,0,1,1.31.482,2.486,2.486,0,0,1,.492,1.64c0,.71,0,1.064.008,1.774a1.691,1.691,0,0,1-.319,1.086,1.725,1.725,0,0,1-1.02.564,1.777,1.777,0,0,1,1.045.522,1.671,1.671,0,0,1,.309,1.08l.008,1.72.738-.015c0,.971.007,1.457.011,2.429h-2.2a1.045,1.045,0,0,1-.766-.249,1.028,1.028,0,0,1-.252-.753c-.007-1.436-.01-2.155-.017-3.591-.6.028-.9.042-1.5.072.009,1.809.013,2.713.022,4.522h-3.371c0-.891-.006-1.338-.01-2.229l.751-.022c-.011-2.482-.017-3.723-.028-6.2l-.75.082c0-.886-.006-1.329-.01-2.215,2.215-.314,3.324-.454,5.545-.694m-2.159,4.695c.556-.04.835-.06,1.391-.1l-.01-2.168c-.556.05-.835.076-1.391.129l.01,2.136" transform="translate(-54.021 -55.945)" fill="#1a1818"></path>
    <path id="Path_68" data-name="Path 68" d="M136.031,125.135a2.916,2.916,0,0,1-.485,1.765,1.528,1.528,0,0,1-1.3.668h-2.986a1.57,1.57,0,0,1-1.316-.638,2.745,2.745,0,0,1-.491-1.7c-.012-2.766-.019-4.149-.031-6.915a2.888,2.888,0,0,1,.483-1.729,1.7,1.7,0,0,1,1.306-.755c1.2-.095,1.8-.137,2.993-.21a1.455,1.455,0,0,1,1.306.581,2.78,2.78,0,0,1,.5,1.744c.008,2.876.012,4.314.021,7.19m-3.936-.052,1.3-.019c-.01-2.761-.015-4.141-.025-6.9-.521.027-.782.042-1.3.072.011,2.74.016,4.11.027,6.849" transform="translate(-61.951 -55.341)" fill="#1a1818"></path>
    <path id="Path_69" data-name="Path 69" d="M143.434,127.3c0-1.018,0-1.526-.007-2.544l.752-.007c-.007-2.812-.01-4.218-.017-7.031l-.753.027c0-1.011,0-1.517-.007-2.528,2.229-.1,3.345-.136,5.576-.165a1.521,1.521,0,0,1,1.306.657,2.963,2.963,0,0,1,.493,1.8c0,2.927,0,4.39,0,7.317a3.024,3.024,0,0,1-.487,1.794,1.523,1.523,0,0,1-1.3.681h-5.553m3.354-2.57,1.406-.006c0-2.84,0-4.26-.008-7.1-.564.008-.846.013-1.409.025,0,2.833.006,4.249.011,7.082" transform="translate(-68.641 -55.07)" fill="#1a1818"></path>
    <path id="Path_70" data-name="Path 70" d="M166.217,124.843a2.954,2.954,0,0,1-.492,1.768,1.534,1.534,0,0,1-1.3.673H161.4a1.513,1.513,0,0,1-1.3-.668,3.035,3.035,0,0,1-.48-1.807l0-7.219-.754,0c0-1.026,0-1.539,0-2.565,1.36,0,2.039.01,3.4.04-.005,3.859-.008,5.789-.013,9.648l1.327.007c.007-3.849.01-5.773.017-9.621,1.354.041,2.031.068,3.384.135,0,1.009,0,1.513-.007,2.521l-.74-.028c-.007,2.847-.011,4.271-.019,7.118" transform="translate(-76.044 -55.057)" fill="#1a1818"></path>
    <path id="Path_71" data-name="Path 71" d="M177.5,127.6a1.534,1.534,0,0,1-1.311-.658,2.923,2.923,0,0,1-.478-1.768c.009-2.868.014-4.3.022-7.171a2.775,2.775,0,0,1,.5-1.725,1.447,1.447,0,0,1,1.313-.587c1.8.117,2.7.187,4.491.352-.007,1.517-.01,2.276-.017,3.792-.91-.056-1.365-.082-2.276-.13,0-.559,0-.839.006-1.4-.547-.034-.821-.05-1.368-.08-.01,2.751-.016,4.126-.027,6.877l1.366.021c0-.8,0-1.2.008-2,.91.027,1.365.042,2.275.074-.008,1.761-.012,2.642-.02,4.4H177.5" transform="translate(-84.106 -55.377)" fill="#1a1818"></path>
    <path id="Path_72" data-name="Path 72" d="M195.327,125.724c0,.908-.006,1.362-.01,2.27h-4.077c0-.949.007-1.424.011-2.374l.719.017c.013-2.6.019-3.9.032-6.5l-.883-.077c0,.744-.005,1.117-.009,1.861-.761-.051-1.141-.076-1.9-.121.008-1.718.012-2.577.02-4.3,3.285.316,4.926.515,8.2.992-.007,1.57-.01,2.355-.017,3.926-.759-.069-1.138-.1-1.9-.166,0-.71,0-1.064.008-1.774l-.881-.092c-.012,2.525-.018,3.788-.03,6.312l.718.02" transform="translate(-90.567 -55.767)" fill="#1a1818"></path>
    <path id="Path_73" data-name="Path 73" d="M208.108,125.059a1.727,1.727,0,0,1-1.3-.646,2.408,2.408,0,0,1-.473-1.558c0-.768,0-1.153.007-1.922a2.021,2.021,0,0,1,.484-1.459,1.4,1.4,0,0,1,1.3-.355c1.778.287,2.666.442,4.438.777,0,1.107,0,1.66,0,2.768-.883-.117-1.325-.174-2.209-.282,0-.34,0-.51,0-.85-.575-.079-.862-.118-1.436-.193,0,.723,0,1.084-.006,1.806.875.089,1.313.135,2.186.23a1.9,1.9,0,0,1,1.287.655,2.09,2.09,0,0,1,.482,1.413v1.914a1.9,1.9,0,0,1-.477,1.367,1.708,1.708,0,0,1-1.3.508h-4.646c.005-1.285.008-1.927.013-3.212.979.046,1.468.07,2.447.12,0,.4,0,.595,0,.991l1.442.052c0-.787,0-1.181,0-1.968-.9-.064-1.345-.1-2.242-.155" transform="translate(-98.766 -57.005)" fill="#1a1818"></path>
  </g>
</svg>
